<svg version="1.1" viewBox="0.0 0.0 512.0 512.0" fill="none" stroke="none" stroke-linecap="square" stroke-miterlimit="10" xmlns:xlink="http://www.w3.org/1999/xlink" xmlns="http://www.w3.org/2000/svg"><clipPath id="p.0"><path d="m0 0l512.0 0l0 512.0l-512.0 0l0 -512.0z" clip-rule="nonzero"/></clipPath><g clip-path="url(#p.0)"><path fill="#000000" fill-opacity="0.0" d="m0 0l512.0 0l0 512.0l-512.0 0z" fill-rule="evenodd"/><defs><radialGradient id="p.1" gradientUnits="userSpaceOnUse" gradientTransform="matrix(26.908685322782404 0.0 0.0 26.908685322782404 0.0 0.0)" spreadMethod="pad" cx="-1.3265433680448497E-6" cy="-3.2188184665794146E-7" fx="-1.3265433680448497E-6" fy="-3.2188184665794146E-7" r="26.9086856842041"><stop offset="0.0" stop-color="#b4a7d6"/><stop offset="1.0" stop-color="#674ea7"/></radialGradient></defs><path fill="url(#p.1)" d="m-3.569554E-5 -8.661417E-6l512.0 0l0 512.0l-512.0 0z" fill-rule="evenodd"/><path stroke="#20124d" stroke-width="8.341207349081365" stroke-linejoin="round" stroke-linecap="butt" d="m-3.569554E-5 -8.661417E-6l512.0 0l0 512.0l-512.0 0z" fill-rule="evenodd"/><defs><radialGradient id="p.2" gradientUnits="userSpaceOnUse" gradientTransform="matrix(20.31037970964923 0.0 0.0 20.31037970964923 0.0 0.0)" spreadMethod="pad" cx="4.718620454464787" cy="2.6277131660125783" fx="4.718620454464787" fy="2.6277131660125783" r="20.310379028320312"><stop offset="0.0" stop-color="#9900ff"/><stop offset="1.0" stop-color="#20124d"/></radialGradient></defs><path fill="url(#p.2)" d="m307.45932 70.14878c-43.843353 -16.847725 -145.67453 -29.855015 -177.54816 6.4695053c-31.87362 36.324524 -50.749565 170.20853 -13.693573 211.4776c37.056 41.269104 189.81778 47.800934 236.02957 36.13687c46.21176 -11.6640625 61.81833 -83.47769 41.241028 -106.12129c-20.57727 -22.6436 -136.90695 -31.906143 -164.70479 -29.740295c-27.797852 2.165863 -18.326553 34.055176 -2.0823212 42.735428c16.244232 8.680252 83.40466 2.2029572 99.54773 9.3461c16.143066 7.1431427 17.781342 32.11624 -2.6893616 33.512787c-20.470703 1.3965149 -101.30791 -3.723236 -120.13492 -25.133667c-18.827026 -21.410416 -24.41829 -91.474335 7.172821 -103.32886c31.59111 -11.854538 166.2302 44.76068 182.37387 32.20166c16.143646 -12.559036 -41.66855 -90.70812 -85.5119 -107.55584z" fill-rule="evenodd"/><path stroke="#20124d" stroke-width="2.779527559055118" stroke-linejoin="round" stroke-linecap="butt" d="m307.45932 70.14878c-43.843353 -16.847725 -145.67453 -29.855015 -177.54816 6.4695053c-31.87362 36.324524 -50.749565 170.20853 -13.693573 211.4776c37.056 41.269104 189.81778 47.800934 236.02957 36.13687c46.21176 -11.6640625 61.81833 -83.47769 41.241028 -106.12129c-20.57727 -22.6436 -136.90695 -31.906143 -164.70479 -29.740295c-27.797852 2.165863 -18.326553 34.055176 -2.0823212 42.735428c16.244232 8.680252 83.40466 2.2029572 99.54773 9.3461c16.143066 7.1431427 17.781342 32.11624 -2.6893616 33.512787c-20.470703 1.3965149 -101.30791 -3.723236 -120.13492 -25.133667c-18.827026 -21.410416 -24.41829 -91.474335 7.172821 -103.32886c31.59111 -11.854538 166.2302 44.76068 182.37387 32.20166c16.143646 -12.559036 -41.66855 -90.70812 -85.5119 -107.55584z" fill-rule="evenodd"/><defs><radialGradient id="p.3" gradientUnits="userSpaceOnUse" gradientTransform="matrix(9.69364010393242 0.0 0.0 9.69364010393242 0.0 0.0)" spreadMethod="pad" cx="6.877728537093865" cy="39.384415720606505" fx="6.877728537093865" fy="39.384415720606505" r="9.693639755249023"><stop offset="0.0" stop-color="#b4a7d6"/><stop offset="1.0" stop-color="#674ea7"/></radialGradient></defs><path fill="url(#p.3)" d="m99.935295 384.59344c-10.609123 4.426605 -34.96437 17.524475 -33.171165 27.601593c1.7932053 10.077087 32.72354 28.305817 43.930405 32.860962c11.206863 4.555176 26.149658 0.21105957 23.310791 -5.5300903c-2.8388672 -5.7411194 -39.74626 -19.934998 -40.344 -28.916748c-0.59773254 -8.981781 35.71192 -20.63794 36.757576 -24.973877c1.0456696 -4.335968 -19.874474 -5.4684753 -30.483604 -1.0418396z" fill-rule="evenodd"/><path stroke="#20124d" stroke-width="2.779527559055118" stroke-linejoin="round" stroke-linecap="butt" d="m99.935295 384.59344c-10.609123 4.426605 -34.96437 17.524475 -33.171165 27.601593c1.7932053 10.077087 32.72354 28.305817 43.930405 32.860962c11.206863 4.555176 26.149658 0.21105957 23.310791 -5.5300903c-2.8388672 -5.7411194 -39.74626 -19.934998 -40.344 -28.916748c-0.59773254 -8.981781 35.71192 -20.63794 36.757576 -24.973877c1.0456696 -4.335968 -19.874474 -5.4684753 -30.483604 -1.0418396z" fill-rule="evenodd"/><defs><radialGradient id="p.4" gradientUnits="userSpaceOnUse" gradientTransform="matrix(11.371232719586391 0.0 0.0 11.371232719586391 0.0 0.0)" spreadMethod="pad" cx="12.974136286623427" cy="29.724191748698004" fx="12.974136286623427" fy="29.724191748698004" r="11.371232986450195"><stop offset="0.0" stop-color="#b4a7d6"/><stop offset="1.0" stop-color="#674ea7"/></radialGradient></defs><path fill="url(#p.4)" d="m155.52226 424.32614c-4.9308014 -15.669708 -10.011688 -62.67917 -7.172821 -76.33237c2.8388672 -13.653168 19.723465 -11.016602 24.206024 -5.5867004c4.4825745 5.429901 -4.7815857 31.649902 2.6893616 38.1662c7.4709473 6.516266 34.66536 -7.601715 42.136307 0.931427c7.470932 8.533112 5.5282288 42.04431 2.6893463 50.267273c-2.8388672 8.222961 -16.136444 4.8108215 -19.722565 -0.9295654c-3.5861053 -5.740387 3.2861938 -28.237762 -1.7940979 -33.512756c-5.080307 -5.274994 -25.251099 -5.5842285 -28.687714 1.862854c-3.4365997 7.4470825 10.458725 38.630646 8.068085 42.81958c-2.3906403 4.188965 -17.48114 -2.0162048 -22.411926 -17.685944z" fill-rule="evenodd"/><path stroke="#20124d" stroke-width="2.779527559055118" stroke-linejoin="round" stroke-linecap="butt" d="m155.52226 424.32614c-4.9308014 -15.669708 -10.011688 -62.67917 -7.172821 -76.33237c2.8388672 -13.653168 19.723465 -11.016602 24.206024 -5.5867004c4.4825745 5.429901 -4.7815857 31.649902 2.6893616 38.1662c7.4709473 6.516266 34.66536 -7.601715 42.136307 0.931427c7.470932 8.533112 5.5282288 42.04431 2.6893463 50.267273c-2.8388672 8.222961 -16.136444 4.8108215 -19.722565 -0.9295654c-3.5861053 -5.740387 3.2861938 -28.237762 -1.7940979 -33.512756c-5.080307 -5.274994 -25.251099 -5.5842285 -28.687714 1.862854c-3.4365997 7.4470825 10.458725 38.630646 8.068085 42.81958c-2.3906403 4.188965 -17.48114 -2.0162048 -22.411926 -17.685944z" fill-rule="evenodd"/><defs><radialGradient id="p.5" gradientUnits="userSpaceOnUse" gradientTransform="matrix(9.617358894705971 0.0 0.0 9.617358894705971 0.0 0.0)" spreadMethod="pad" cx="23.98226078920614" cy="38.29624968501278" fx="23.98226078920614" fy="38.29624968501278" r="9.617359161376953"><stop offset="0.0" stop-color="#b4a7d6"/><stop offset="1.0" stop-color="#674ea7"/></radialGradient></defs><path fill="url(#p.5)" d="m275.4405 425.62866c-7.968567 -0.5449219 -30.301636 9.156647 -37.116806 4.5783386c-6.8151855 -4.5783386 -7.7585297 -26.162018 -3.7742462 -32.04834c3.9842682 -5.8862915 21.493774 -0.76239014 27.679901 -3.2694702c6.186157 -2.50708 13.421173 -9.592957 9.43689 -11.773041c-3.9842834 -2.1800842 -27.156418 0.54556274 -33.342545 -1.3075256c-6.186142 -1.8531189 -11.637894 -8.175903 -3.7742462 -9.811096c7.8636475 -1.6351624 41.624573 -7.4124146 50.956116 0c9.331543 7.4124146 3.250763 35.75409 5.0331726 44.474457c1.7824402 8.720398 6.3953247 5.013733 5.661377 7.8478394c-0.73394775 2.834076 -6.605133 8.938507 -10.065094 9.156647c-3.4599304 0.21813965 -2.7259827 -7.302887 -10.694519 -7.847809z" fill-rule="evenodd"/><path stroke="#20124d" stroke-width="2.779527559055118" stroke-linejoin="round" stroke-linecap="butt" d="m275.4405 425.62866c-7.968567 -0.5449219 -30.301636 9.156647 -37.116806 4.5783386c-6.8151855 -4.5783386 -7.7585297 -26.162018 -3.7742462 -32.04834c3.9842682 -5.8862915 21.493774 -0.76239014 27.679901 -3.2694702c6.186157 -2.50708 13.421173 -9.592957 9.43689 -11.773041c-3.9842834 -2.1800842 -27.156418 0.54556274 -33.342545 -1.3075256c-6.186142 -1.8531189 -11.637894 -8.175903 -3.7742462 -9.811096c7.8636475 -1.6351624 41.624573 -7.4124146 50.956116 0c9.331543 7.4124146 3.250763 35.75409 5.0331726 44.474457c1.7824402 8.720398 6.3953247 5.013733 5.661377 7.8478394c-0.73394775 2.834076 -6.605133 8.938507 -10.065094 9.156647c-3.4599304 0.21813965 -2.7259827 -7.302887 -10.694519 -7.847809z" fill-rule="evenodd"/><defs><radialGradient id="p.6" gradientUnits="userSpaceOnUse" gradientTransform="matrix(10.48694370887049 0.0 0.0 10.48694370887049 0.0 0.0)" spreadMethod="pad" cx="29.02120535231636" cy="33.03781537290236" fx="29.02120535231636" fy="33.03781537290236" r="10.486943244934082"><stop offset="0.0" stop-color="#b4a7d6"/><stop offset="1.0" stop-color="#674ea7"/></radialGradient></defs><path fill="url(#p.6)" d="m326.41312 429.10483c-1.8198853 -6.9754944 6.704254 -32.62448 3.447754 -40.565735c-3.2564697 -7.9412537 -19.251312 -3.8623657 -22.986572 -7.081787c-3.73526 -3.2194214 -3.1604614 -10.088379 0.5750122 -12.23465c3.735443 -2.1462708 18.102448 2.7909546 21.837708 -0.64297485c3.73526 -3.43396 -2.012146 -16.74112 0.57385254 -19.960754c2.586029 -3.2196045 12.834991 -2.6838074 14.94223 0.64297485c2.1072083 3.3268127 -6.225647 15.132385 -2.2988892 19.31778c3.9267273 4.185364 22.219727 2.0386658 25.859344 5.794525c3.639618 3.75589 -0.09487915 14.057739 -4.0216064 16.740692c-3.9267578 2.682953 -15.611908 -7.1891785 -19.538849 -0.64297485c-3.926941 6.546173 -0.9577637 33.481323 -4.022766 39.920166c-3.0650024 6.4388123 -12.547302 5.6882324 -14.367218 -1.287262z" fill-rule="evenodd"/><path stroke="#20124d" stroke-width="2.779527559055118" stroke-linejoin="round" stroke-linecap="butt" d="m326.41312 429.10483c-1.8198853 -6.9754944 6.704254 -32.62448 3.447754 -40.565735c-3.2564697 -7.9412537 -19.251312 -3.8623657 -22.986572 -7.081787c-3.73526 -3.2194214 -3.1604614 -10.088379 0.5750122 -12.23465c3.735443 -2.1462708 18.102448 2.7909546 21.837708 -0.64297485c3.73526 -3.43396 -2.012146 -16.74112 0.57385254 -19.960754c2.586029 -3.2196045 12.834991 -2.6838074 14.94223 0.64297485c2.1072083 3.3268127 -6.225647 15.132385 -2.2988892 19.31778c3.9267273 4.185364 22.219727 2.0386658 25.859344 5.794525c3.639618 3.75589 -0.09487915 14.057739 -4.0216064 16.740692c-3.9267578 2.682953 -15.611908 -7.1891785 -19.538849 -0.64297485c-3.926941 6.546173 -0.9577637 33.481323 -4.022766 39.920166c-3.0650024 6.4388123 -12.547302 5.6882324 -14.367218 -1.287262z" fill-rule="evenodd"/><defs><radialGradient id="p.7" gradientUnits="userSpaceOnUse" gradientTransform="matrix(6.353477383981658 0.0 0.0 6.353477383981658 0.0 0.0)" spreadMethod="pad" cx="59.996389240868155" cy="66.21315470260195" fx="59.996389240868155" fy="66.21315470260195" r="6.353477478027344"><stop offset="0.0" stop-color="#b4a7d6"/><stop offset="1.0" stop-color="#674ea7"/></radialGradient></defs><path fill="url(#p.7)" d="m386.56445 421.24997c-4.4992065 2.276123 -7.0371704 16.411835 -4.152893 20.843994c2.8842773 4.4321594 16.95932 8.025055 21.458557 5.7489014c4.4992065 -2.276123 8.4210205 -14.973511 5.536743 -19.40567c-2.8842773 -4.4321594 -18.34317 -9.463379 -22.842407 -7.1872253z" fill-rule="evenodd"/><path stroke="#20124d" stroke-width="2.779527559055118" stroke-linejoin="round" stroke-linecap="butt" d="m386.56445 421.24997c-4.4992065 2.276123 -7.0371704 16.411835 -4.152893 20.843994c2.8842773 4.4321594 16.95932 8.025055 21.458557 5.7489014c4.4992065 -2.276123 8.4210205 -14.973511 5.536743 -19.40567c-2.8842773 -4.4321594 -18.34317 -9.463379 -22.842407 -7.1872253z" fill-rule="evenodd"/><defs><radialGradient id="p.8" gradientUnits="userSpaceOnUse" gradientTransform="matrix(8.433208421733529 6.705982723413306 -6.705982723413306 8.433208421733529 0.0 0.0)" spreadMethod="pad" cx="47.94711224421399" cy="0.9758802824994673" fx="47.94711224421399" fy="0.9758802824994673" r="8.433208465576172"><stop offset="0.0" stop-color="#b4a7d6"/><stop offset="1.0" stop-color="#674ea7"/></radialGradient></defs><path fill="url(#p.8)" d="m389.8619 405.01904c-4.418274 -10.755524 -5.560852 -49.986908 -2.3190613 -60.686554c3.2417908 -10.6996765 17.351532 -14.266937 21.769806 -3.5114136c4.418274 10.755493 7.9816284 57.34485 4.7398376 68.044495c-3.2417908 10.6996765 -19.772308 6.908966 -24.190582 -3.846527z" fill-rule="evenodd"/><path stroke="#20124d" stroke-width="2.779527559055118" stroke-linejoin="round" stroke-linecap="butt" d="m389.8619 405.01904c-4.418274 -10.755524 -5.560852 -49.986908 -2.3190613 -60.686554c3.2417908 -10.6996765 17.351532 -14.266937 21.769806 -3.5114136c4.418274 10.755493 7.9816284 57.34485 4.7398376 68.044495c-3.2417908 10.6996765 -19.772308 6.908966 -24.190582 -3.846527z" fill-rule="evenodd"/></g></svg>